<?xml version="1.0" encoding="UTF-8"?>
<svg version="1.1" xmlns="http://www.w3.org/2000/svg" width="291" height="150">
<path d="M0 0 C4.08379341 1.35172847 6.37683519 3.06936242 9.3125 6.1875 C12.0043854 8.97190519 14.67986588 11.67226563 17.625 14.1875 C21.67074554 17.65759838 25.55120752 21.29137973 29.4375 24.9375 C34.88496387 30.04597454 40.37258422 35.08935534 46 40 C45.67 41.32 45.34 42.64 45 44 C39.93523172 43.62552545 37.27324488 40.89458967 33.8125 37.5 C32.65287073 36.3952799 31.49270998 35.29111743 30.33203125 34.1875 C29.76436035 33.64222656 29.19668945 33.09695312 28.61181641 32.53515625 C26.44964461 30.47582025 24.2299955 28.48546244 22 26.5 C19.17633171 23.97307189 16.37386214 21.42649788 13.59765625 18.84765625 C13.01177734 18.30367187 12.42589844 17.7596875 11.82226562 17.19921875 C10.67209193 16.12946785 9.52358036 15.05792634 8.37695312 13.984375 C5.99724423 11.77109974 3.71102493 9.80734995 1 8 C-3.17644661 12.06219731 -7.12805002 16.23843381 -10.93359375 20.6484375 C-13.49213913 23.56005247 -16.1164045 26.40633496 -18.75 29.25 C-19.26578613 29.80695557 -19.78157227 30.36391113 -20.31298828 30.93774414 C-21.36272657 32.07102505 -22.41253133 33.20424439 -23.46240234 34.33740234 C-25.83708072 36.90513174 -28.20048404 39.48312583 -30.5625 42.0625 C-31.44679688 43.02800781 -32.33109375 43.99351563 -33.2421875 44.98828125 C-33.68788086 45.47506348 -34.13357422 45.9618457 -34.59277344 46.46337891 C-37.12328 49.22656564 -39.65551386 51.98816912 -42.1875 54.75 C-43.11849663 55.76561854 -44.04948689 56.78124292 -44.98046875 57.796875 C-45.64691406 58.52390625 -46.31335938 59.2509375 -47 60 C-46.5875 60.64324219 -46.175 61.28648438 -45.75 61.94921875 C-44.51207919 63.88623322 -43.27952751 65.82668395 -42.05078125 67.76953125 C-40.75036691 69.81799345 -39.43677263 71.85819593 -38.10546875 73.88671875 C-29.41870045 87.42109298 -22.87731653 102.06440642 -17.3125 117.125 C-16.7855957 118.53833618 -16.7855957 118.53833618 -16.24804688 119.98022461 C-15.93544922 120.85557861 -15.62285156 121.73093262 -15.30078125 122.6328125 C-14.88566284 123.79127686 -14.88566284 123.79127686 -14.4621582 124.97314453 C-14 127 -14 127 -15 130 C-30.18 130 -45.36 130 -61 130 C-61.20054405 114.26843367 -61.20054405 114.26843367 -61.24414062 107.54296875 C-61.27398692 102.96047889 -61.30922625 98.37849035 -61.37719727 93.79638672 C-61.43167656 90.10050606 -61.46145343 86.40516322 -61.47438622 82.7089119 C-61.48359787 81.30149497 -61.50158679 79.89410625 -61.52865028 78.4869194 C-61.7578483 66.07153941 -61.7578483 66.07153941 -58.46948242 62.08837891 C-57.24708862 61.05463135 -57.24708862 61.05463135 -56 60 C-72.43638547 39.38929442 -92.2501173 25.2069759 -116 14 C-115.67 12.35 -115.34 10.7 -115 9 C-92.29658858 12.17499815 -67.48072758 35.27913046 -53.4375 52.0625 C-52.963125 52.701875 -52.48875 53.34125 -52 54 C-47.7958915 52.40223905 -45.2318382 49.27025609 -42.3125 46 C-41.78140625 45.41476563 -41.2503125 44.82953125 -40.703125 44.2265625 C-39.12935412 42.4897262 -37.5636499 40.74594734 -36 39 C-35.22011719 38.13375 -34.44023438 37.2675 -33.63671875 36.375 C-32.20168755 34.7799379 -30.76811365 33.1835636 -29.3359375 31.5859375 C-26.11819583 28.02382214 -22.86009024 24.499775 -19.59960938 20.97680664 C-17.03557476 18.20606107 -14.47622145 15.43138111 -11.9296875 12.64453125 C-11.19081299 11.83604736 -11.19081299 11.83604736 -10.43701172 11.01123047 C-9.082317 9.52764873 -7.72862591 8.04315074 -6.375 6.55859375 C-4.29639266 4.31930459 -2.17771777 2.14243068 0 0 Z M-54.03411865 66.65032959 C-56.45663809 69.54578524 -56.48769913 70.86539668 -56.45410156 74.59472656 C-56.45379944 75.71558655 -56.45349731 76.83644653 -56.45318604 77.99127197 C-56.43254089 79.19555847 -56.41189575 80.39984497 -56.390625 81.640625 C-56.38496521 82.87794373 -56.37930542 84.11526245 -56.37347412 85.39007568 C-56.35488251 88.67177936 -56.31897498 91.95269281 -56.2746582 95.23413086 C-56.23366165 98.58570067 -56.21579501 101.93730444 -56.1953125 105.2890625 C-56.15460035 111.86000431 -56.07630851 118.42898902 -56 125 C-44.45 125 -32.9 125 -21 125 C-22.93711877 118.54293743 -24.81094812 112.6298637 -27.5625 106.5625 C-28.07695679 105.42131714 -28.07695679 105.42131714 -28.60180664 104.25708008 C-34.87497682 90.54686287 -41.62775837 76.89143186 -51 65 C-52.30713893 64.89499293 -52.30713893 64.89499293 -54.03411865 66.65032959 Z " fill="#3B61AD" transform="translate(124,13)"/>
<path d="M0 0 C3.62011046 2.33296007 5.89022378 4.96794755 7.8125 8.8125 C8.22843526 13.33179654 8.37098834 17.46037033 6.625 21.6875 C3.73527038 25.07545887 1.05889072 27.39703643 -3.1875 28.8125 C-8.45277581 29.20987931 -11.69431546 28.60825927 -16.1875 25.8125 C-19.4870009 22.9588776 -20.9605975 20.97365335 -21.42578125 16.54296875 C-21.59515685 10.73962587 -21.17704872 7.35615271 -17.1875 2.8125 C-12.03125474 -1.71874584 -6.43533024 -2.39747597 0 0 Z " fill="#F08A20" transform="translate(85.1875,8.1875)"/>
<path d="M0 0 C1.02090729 0.00007553 2.04181458 0.00015106 3.09365845 0.00022888 C4.75151871 0.00797081 4.75151871 0.00797081 6.44287109 0.01586914 C7.57203949 0.01728409 8.70120789 0.01869904 9.86459351 0.02015686 C13.48185848 0.02576796 17.09906223 0.03832237 20.71630859 0.05102539 C23.16422437 0.05603896 25.61214111 0.06060211 28.06005859 0.06469727 C34.07049625 0.07574099 40.08089805 0.09248996 46.09130859 0.11352539 C46.09130859 1.10352539 46.09130859 2.09352539 46.09130859 3.11352539 C45.43130859 3.11352539 44.77130859 3.11352539 44.09130859 3.11352539 C44.09130859 7.07352539 44.09130859 11.03352539 44.09130859 15.11352539 C43.10130859 15.11352539 42.11130859 15.11352539 41.09130859 15.11352539 C41.09130859 13.13352539 41.09130859 11.15352539 41.09130859 9.11352539 C39.44130859 9.11352539 37.79130859 9.11352539 36.09130859 9.11352539 C36.60693359 9.71165039 37.12255859 10.30977539 37.65380859 10.92602539 C38.12818359 11.64790039 38.60255859 12.36977539 39.09130859 13.11352539 C38.76130859 14.10352539 38.43130859 15.09352539 38.09130859 16.11352539 C34.69713094 12.98730913 32.4850368 10.54811512 31.09130859 6.11352539 C32.08130859 5.78352539 33.07130859 5.45352539 34.09130859 5.11352539 C34.09130859 4.45352539 34.09130859 3.79352539 34.09130859 3.11352539 C32.44130859 3.11352539 30.79130859 3.11352539 29.09130859 3.11352539 C29.09130859 7.07352539 29.09130859 11.03352539 29.09130859 15.11352539 C28.10130859 14.78352539 27.11130859 14.45352539 26.09130859 14.11352539 C26.09130859 10.48352539 26.09130859 6.85352539 26.09130859 3.11352539 C25.43130859 3.11352539 24.77130859 3.11352539 24.09130859 3.11352539 C24.09130859 7.07352539 24.09130859 11.03352539 24.09130859 15.11352539 C23.10130859 14.78352539 22.11130859 14.45352539 21.09130859 14.11352539 C20.76130859 13.45352539 20.43130859 12.79352539 20.09130859 12.11352539 C18.43309087 11.7404264 16.76553845 11.40651562 15.09130859 11.11352539 C14.09130859 10.11352539 14.09130859 10.11352539 13.96630859 7.61352539 C14.09130859 5.11352539 14.09130859 5.11352539 15.09130859 4.11352539 C14.10130859 3.78352539 13.11130859 3.45352539 12.09130859 3.11352539 C12.09130859 7.07352539 12.09130859 11.03352539 12.09130859 15.11352539 C11.43130859 15.11352539 10.77130859 15.11352539 10.09130859 15.11352539 C10.09130859 11.15352539 10.09130859 7.19352539 10.09130859 3.11352539 C9.10130859 3.11352539 8.11130859 3.11352539 7.09130859 3.11352539 C7.09130859 7.07352539 7.09130859 11.03352539 7.09130859 15.11352539 C6.10130859 14.78352539 5.11130859 14.45352539 4.09130859 14.11352539 C4.09130859 12.46352539 4.09130859 10.81352539 4.09130859 9.11352539 C3.43130859 9.11352539 2.77130859 9.11352539 2.09130859 9.11352539 C1.76130859 10.43352539 1.43130859 11.75352539 1.09130859 13.11352539 C-0.59619141 13.86352539 -0.59619141 13.86352539 -2.90869141 14.11352539 C-6.1262029 12.16805332 -7.64332028 11.01170458 -8.72119141 7.36352539 C-8.78306641 6.62102539 -8.84494141 5.87852539 -8.90869141 5.11352539 C-8.24869141 5.11352539 -7.58869141 5.11352539 -6.90869141 5.11352539 C-6.64056641 5.75290039 -6.37244141 6.39227539 -6.09619141 7.05102539 C-5.02201388 9.44484225 -5.02201388 9.44484225 -1.90869141 10.11352539 C-1.57869141 9.45352539 -1.24869141 8.79352539 -0.90869141 8.11352539 C-2.22869141 7.78352539 -3.54869141 7.45352539 -4.90869141 7.11352539 C-4.90869141 5.11352539 -4.90869141 5.11352539 -3.90869141 4.11352539 C-4.89869141 3.78352539 -5.88869141 3.45352539 -6.90869141 3.11352539 C-6.90869141 2.45352539 -6.90869141 1.79352539 -6.90869141 1.11352539 C-4.42514099 -0.12824982 -2.77761519 -0.00684142 0 0 Z M1.09130859 3.11352539 C1.09130859 4.43352539 1.09130859 5.75352539 1.09130859 7.11352539 C2.08130859 7.11352539 3.07130859 7.11352539 4.09130859 7.11352539 C4.09130859 5.79352539 4.09130859 4.47352539 4.09130859 3.11352539 C3.10130859 3.11352539 2.11130859 3.11352539 1.09130859 3.11352539 Z M37.09130859 3.11352539 C37.09130859 4.10352539 37.09130859 5.09352539 37.09130859 6.11352539 C38.41130859 6.11352539 39.73130859 6.11352539 41.09130859 6.11352539 C41.09130859 5.12352539 41.09130859 4.13352539 41.09130859 3.11352539 C39.77130859 3.11352539 38.45130859 3.11352539 37.09130859 3.11352539 Z M18.09130859 6.11352539 C17.76130859 7.10352539 17.43130859 8.09352539 17.09130859 9.11352539 C18.41130859 8.78352539 19.73130859 8.45352539 21.09130859 8.11352539 C21.09130859 7.45352539 21.09130859 6.79352539 21.09130859 6.11352539 C20.10130859 6.11352539 19.11130859 6.11352539 18.09130859 6.11352539 Z " fill="#3B61AD" transform="translate(120.90869140625,92.886474609375)"/>
<path d="M0 0 C3.3125 -0.25 3.3125 -0.25 7 0 C7.40259033 0.65258789 7.80518066 1.30517578 8.2199707 1.97753906 C9.96178446 4.39464332 9.96178446 4.39464332 13.64526367 4.54589844 C15.15241621 4.58714498 16.66025382 4.60697539 18.16796875 4.609375 C18.96278152 4.62591125 19.7575943 4.64244751 20.57649231 4.65948486 C23.11357281 4.7080462 25.65005367 4.72935279 28.1875 4.75 C29.90823343 4.77815304 31.62893882 4.80807954 33.34960938 4.83984375 C37.56635688 4.91380676 41.78276993 4.96333118 46 5 C46 5.99 46 6.98 46 8 C45.34 8 44.68 8 44 8 C44 11.96 44 15.92 44 20 C43.01 20 42.02 20 41 20 C41 16.04 41 12.08 41 8 C40.01 8 39.02 8 38 8 C38 11.96 38 15.92 38 20 C37.34 20 36.68 20 36 20 C36 17.69 36 15.38 36 13 C34.68 13 33.36 13 32 13 C32 13.99 32 14.98 32 16 C31.01 15.67 30.02 15.34 29 15 C27.8125 12.4375 27.8125 12.4375 27 10 C29.97 10 32.94 10 36 10 C36 9.34 36 8.68 36 8 C32.7 8 29.4 8 26 8 C26 11.96 26 15.92 26 20 C25.01 20 24.02 20 23 20 C23 17.36 23 14.72 23 12 C22.34 12 21.68 12 21 12 C20.67 13.65 20.34 15.3 20 17 C16.88045262 16.66275164 15.3790035 16.3790035 13.125 14.125 C12.75375 13.42375 12.3825 12.7225 12 12 C12.33 11.01 12.66 10.02 13 9 C13.66 9.33 14.32 9.66 15 10 C15.33 10.99 15.66 11.98 16 13 C16.66 13.33 17.32 13.66 18 14 C18 13.01 18 12.02 18 11 C17.34 11 16.68 11 16 11 C16 10.34 16 9.68 16 9 C13.525 8.505 13.525 8.505 11 8 C11 11.96 11 15.92 11 20 C10.01 20 9.02 20 8 20 C8 16.04 8 12.08 8 8 C7.34 8 6.68 8 6 8 C6 11.96 6 15.92 6 20 C5.01 20 4.02 20 3 20 C3 18.68 3 17.36 3 16 C2.05125 16.04125 1.1025 16.0825 0.125 16.125 C-3 16 -3 16 -5 14 C-5 12.68 -5 11.36 -5 10 C-4.01 10 -3.02 10 -2 10 C-2 9.34 -2 8.68 -2 8 C-3.32 8 -4.64 8 -6 8 C-6 7.01 -6 6.02 -6 5 C-0.06 4.505 -0.06 4.505 6 4 C4.35 3.67 2.7 3.34 1 3 C0.67 2.01 0.34 1.02 0 0 Z M0 8 C-0.33 9.65 -0.66 11.3 -1 13 C0.32 12.67 1.64 12.34 3 12 C3 10.68 3 9.36 3 8 C2.01 8 1.02 8 0 8 Z " fill="#3B61AD" transform="translate(179,88)"/>
<path d="M0 0 C1.65 0 3.3 0 5 0 C5.33 1.32 5.66 2.64 6 4 C6.60328125 3.9278125 7.2065625 3.855625 7.828125 3.78125 C9.02695313 3.64203125 9.02695313 3.64203125 10.25 3.5 C11.43335937 3.36078125 11.43335937 3.36078125 12.640625 3.21875 C15 3 15 3 19 3 C19 2.01 19 1.02 19 0 C20.98 0 22.96 0 25 0 C25 0.99 25 1.98 25 3 C25.99902344 2.98839844 26.99804688 2.97679688 28.02734375 2.96484375 C29.31769531 2.95582031 30.60804688 2.94679688 31.9375 2.9375 C33.22527344 2.92589844 34.51304687 2.91429688 35.83984375 2.90234375 C39 3 39 3 40 4 C40 7.63 40 11.26 40 15 C30.1 15 20.2 15 10 15 C10 12.69 10 10.38 10 8 C9.67 10.31 9.34 12.62 9 15 C8.01 15 7.02 15 6 15 C5.67 13.02 5.34 11.04 5 9 C4.34 9 3.68 9 3 9 C3 10.98 3 12.96 3 15 C2.01 15 1.02 15 0 15 C0 10.05 0 5.1 0 0 Z " fill="#F08A20" transform="translate(112,112)"/>
<path d="M0 0 C2.6074028 -0.38344159 4.38063153 -0.374232 6.66796875 1.0078125 C8.3125 2.3125 8.3125 2.3125 11 5 C11 5.99 11 6.98 11 8 C10.34 8 9.68 8 9 8 C9 11.96 9 15.92 9 20 C8.01 19.67 7.02 19.34 6 19 C6 15.37 6 11.74 6 8 C5.01 8 4.02 8 3 8 C2.23477199 11.35458155 2.23477199 11.35458155 2 15 C3.33378575 16.8354799 3.33378575 16.8354799 5 18 C5 18.66 5 19.32 5 20 C1.9054129 19.6684371 0.97195314 18.97117406 -1.25 16.6875 C-3 14 -3 14 -3 10 C-2.01 10 -1.02 10 0 10 C0 9.34 0 8.68 0 8 C-2.31 8 -4.62 8 -7 8 C-6.7834375 8.86625 -6.7834375 8.86625 -6.5625 9.75 C-6.04166667 11.83333333 -5.52083333 13.91666667 -5 16 C-5.99 16.66 -6.98 17.32 -8 18 C-8 18.99 -8 19.98 -8 21 C-12.81751825 19.51094891 -12.81751825 19.51094891 -15 18 C-15.83523463 14.8261084 -16 12.24986634 -16 9 C-16.66 8.67 -17.32 8.34 -18 8 C-18 11.96 -18 15.92 -18 20 C-18.99 19.67 -19.98 19.34 -21 19 C-21.6875 16.9375 -21.6875 16.9375 -22 15 C-22 16.65 -22 18.3 -22 20 C-22.99 20 -23.98 20 -25 20 C-25.33 19.34 -25.66 18.68 -26 18 C-28.01669827 16.86649466 -28.01669827 16.86649466 -30 16 C-30 15.01 -30 14.02 -30 13 C-29.34 12.67 -28.68 12.34 -28 12 C-28.66 11.34 -29.32 10.68 -30 10 C-29.625 7.875 -29.625 7.875 -29 6 C-23.23900697 4.83010551 -17.4809405 4.66795959 -11.625 4.4375 C-10.60277344 4.39431641 -9.58054688 4.35113281 -8.52734375 4.30664062 C-6.01834712 4.20112208 -3.50926057 4.09900787 -1 4 C-0.67 2.68 -0.34 1.36 0 0 Z M3 2 C2.67 2.99 2.34 3.98 2 5 C3.32 4.67 4.64 4.34 6 4 C5.01 3.34 4.02 2.68 3 2 Z M-27 8 C-26.67 8.66 -26.34 9.32 -26 10 C-25.34 10 -24.68 10 -24 10 C-24 9.34 -24 8.68 -24 8 C-24.99 8 -25.98 8 -27 8 Z M-12 14 C-12 14.99 -12 15.98 -12 17 C-11.67 16.34 -11.34 15.68 -11 15 C-10.01 14.67 -9.02 14.34 -8 14 C-9.32 14 -10.64 14 -12 14 Z " fill="#3B61AD" transform="translate(265,88)"/>
<path d="M0 0 C14.52 0 29.04 0 44 0 C43.67 0.99 43.34 1.98 43 3 C42.34 3 41.68 3 41 3 C41 6.96 41 10.92 41 15 C40.01 14.67 39.02 14.34 38 14 C38 11.69 38 9.38 38 7 C37.01 7 36.02 7 35 7 C35 7.99 35 8.98 35 10 C34.01 10 33.02 10 32 10 C31.34 8.35 30.68 6.7 30 5 C32.64 5 35.28 5 38 5 C38 4.34 38 3.68 38 3 C34.7 3 31.4 3 28 3 C28 6.96 28 10.92 28 15 C27.34 15 26.68 15 26 15 C26 11.04 26 7.08 26 3 C25.01 3 24.02 3 23 3 C23 6.96 23 10.92 23 15 C22.01 14.67 21.02 14.34 20 14 C19.67 13.34 19.34 12.68 19 12 C17.02111039 11.27306096 15.02045442 10.60183749 13 10 C12.87625 9.030625 12.7525 8.06125 12.625 7.0625 C12.41875 6.051875 12.2125 5.04125 12 4 C11.34 3.67 10.68 3.34 10 3 C10 6.96 10 10.92 10 15 C9.34 15 8.68 15 8 15 C7.67 14.01 7.34 13.02 7 12 C6.401875 12.33 5.80375 12.66 5.1875 13 C3 14 3 14 0 14 C0 11 0 11 2 9 C1.67 8.071875 1.34 7.14375 1 6.1875 C0 3 0 3 0 0 Z M4 3 C4 4.65 4 6.3 4 8 C5.32 8 6.64 8 8 8 C8 6.35 8 4.7 8 3 C6.68 3 5.36 3 4 3 Z M19 3 C20 6 20 6 20 6 Z M17 7 C16.67 7.66 16.34 8.32 16 9 C17.32 9 18.64 9 20 9 C20 8.34 20 7.68 20 7 C19.01 7 18.02 7 17 7 Z " fill="#3B61AD" transform="translate(112,70)"/>
<path d="M0 0 C2.97 0 5.94 0 9 0 C9.33 0.99 9.66 1.98 10 3 C13.66708957 3.94296589 16.35346727 4.11421833 20 3 C20.33 2.34 20.66 1.68 21 1 C21.99 1 22.98 1 24 1 C24 1.99 24 2.98 24 4 C25.175625 3.7215625 25.175625 3.7215625 26.375 3.4375 C29 3 29 3 31 4 C31 7.63 31 11.26 31 15 C30.34 15 29.68 15 29 15 C29 12.36 29 9.72 29 7 C28.34 7 27.68 7 27 7 C27 9.64 27 12.28 27 15 C18.09 15 9.18 15 0 15 C0 10.05 0 5.1 0 0 Z " fill="#F08A20" transform="translate(155,112)"/>
<path d="M0 0 C2.64 0 5.28 0 8 0 C8 0.99 8 1.98 8 3 C8.77085937 2.98839844 9.54171875 2.97679688 10.3359375 2.96484375 C11.33882812 2.95582031 12.34171875 2.94679688 13.375 2.9375 C14.37273437 2.92589844 15.37046875 2.91429688 16.3984375 2.90234375 C19 3 19 3 21 4 C22.11375 3.835 23.2275 3.67 24.375 3.5 C28 3 28 3 32 4 C32.495 9.445 32.495 9.445 33 15 C27.06 15 21.12 15 15 15 C14.67 15.99 14.34 16.98 14 18 C13.01 18 12.02 18 11 18 C11 17.01 11 16.02 11 15 C7.71303767 14.20046862 6.28976808 13.90341064 3 15 C2.01 10.05 1.02 5.1 0 0 Z " fill="#F08A20" transform="translate(218,112)"/>
<path d="M0 0 C2.31 0 4.62 0 7 0 C7 1.32 7 2.64 7 4 C8.32 3.67 9.64 3.34 11 3 C11 2.01 11 1.02 11 0 C11.66 0 12.32 0 13 0 C13 0.99 13 1.98 13 3 C16.10860106 3.9991932 17.88611292 3.83036989 21 3 C21.66 3.33 22.32 3.66 23 4 C24.67654729 3.72057545 26.34608154 3.39171753 28 3 C29.82089479 6.64178957 29.05121113 11.00553148 29 15 C23.06 15 17.12 15 11 15 C10.67 12.69 10.34 10.38 10 8 C9.67 10.31 9.34 12.62 9 15 C6.36 15 3.72 15 1 15 C0.67 13.35 0.34 11.7 0 10 C-1.32 10 -2.64 10 -4 10 C-4 9.01 -4 8.02 -4 7 C-2.68 7 -1.36 7 0 7 C0 4.69 0 2.38 0 0 Z M13 8 C14 11 14 11 14 11 Z " fill="#F08A20" transform="translate(255,112)"/>
<path d="M0 0 C5.5 -0.36666667 5.5 -0.36666667 7.875 1.375 C9 3 9 3 9 5 C9.99 5 10.98 5 12 5 C12 5.99 12 6.98 12 8 C11.34 8 10.68 8 10 8 C10 11.96 10 15.92 10 20 C9.01 19.67 8.02 19.34 7 19 C7 15.37 7 11.74 7 8 C6.01 8 5.02 8 4 8 C4 11.96 4 15.92 4 20 C3.34 20 2.68 20 2 20 C2 18.35 2 16.7 2 15 C1.4225 15.350625 0.845 15.70125 0.25 16.0625 C-2.35801776 17.14917407 -3.39417629 16.93065133 -6 16 C-6 15.34 -6 14.68 -6 14 C-5.01 13.67 -4.02 13.34 -3 13 C-4.32 12.34 -5.64 11.68 -7 11 C-7 10.34 -7 9.68 -7 9 C-4.66705225 8.95758277 -2.33297433 8.95907063 0 9 C0.33 9.33 0.66 9.66 1 10 C1.33 9.34 1.66 8.68 2 8 C-1.3 8 -4.6 8 -8 8 C-8 11.96 -8 15.92 -8 20 C-8.99 19.67 -9.98 19.34 -11 19 C-11 17.35 -11 15.7 -11 14 C-13.31 14.33 -15.62 14.66 -18 15 C-18.93423645 11.98968256 -19.04449911 11.13349732 -18 8 C-18.66 8 -19.32 8 -20 8 C-20 7.01 -20 6.02 -20 5 C-13.4 5 -6.8 5 0 5 C0 3.35 0 1.7 0 0 Z M3 2 C3 2.99 3 3.98 3 5 C4.32 4.67 5.64 4.34 7 4 C5.68 3.34 4.36 2.68 3 2 Z M-15 8 C-15 8.99 -15 9.98 -15 11 C-13.68 11 -12.36 11 -11 11 C-11 10.01 -11 9.02 -11 8 C-12.32 8 -13.64 8 -15 8 Z " fill="#3B61AD" transform="translate(180,65)"/>
<path d="M0 0 C0.99 0 1.98 0 3 0 C3.33 1.32 3.66 2.64 4 4 C5.46373047 3.89171875 5.46373047 3.89171875 6.95703125 3.78125 C8.86548828 3.64203125 8.86548828 3.64203125 10.8125 3.5 C12.70935547 3.36078125 12.70935547 3.36078125 14.64453125 3.21875 C18.39529043 2.97423019 21.39286886 3.00492934 25 4 C25.02688151 5.64574566 25.04634123 7.29161413 25.0625 8.9375 C25.07410156 9.85402344 25.08570313 10.77054688 25.09765625 11.71484375 C25 14 25 14 24 15 C22.35563243 15.07250298 20.70832798 15.08375172 19.0625 15.0625 C18.16660156 15.05347656 17.27070313 15.04445313 16.34765625 15.03515625 C15.57292969 15.02355469 14.79820312 15.01195313 14 15 C13.34 15 12.68 15 12 15 C7.33333333 15 2.66666667 15 -2 15 C-1.85879286 13.06215735 -1.71187127 11.12473045 -1.5625 9.1875 C-1.48128906 8.10855469 -1.40007812 7.02960938 -1.31640625 5.91796875 C-1 3 -1 3 0 0 Z M4 6 C5 8 5 8 5 8 Z " fill="#F08A20" transform="translate(191,112)"/>
<path d="M0 0 C3.3 0 6.6 0 10 0 C10 0.99 10 1.98 10 3 C6.7 3 3.4 3 0 3 C0 2.01 0 1.02 0 0 Z " fill="#3B61AD" transform="translate(224,99)"/>
<path d="M0 0 C0.99 0.33 1.98 0.66 3 1 C2.67 1.99 2.34 2.98 2 4 C0.68 3.67 -0.64 3.34 -2 3 C-1.34 2.01 -0.68 1.02 0 0 Z " fill="#3B61AD" transform="translate(170,65)"/>
<path d="M0 0 C0.99 0 1.98 0 3 0 C3 0.99 3 1.98 3 3 C2.01 3 1.02 3 0 3 C0 2.01 0 1.02 0 0 Z " fill="#F08A20" transform="translate(230,112)"/>
<path d="M0 0 C0.66 0 1.32 0 2 0 C2 0.99 2 1.98 2 3 C1.34 3 0.68 3 0 3 C0 2.01 0 1.02 0 0 Z " fill="#F08A20" transform="translate(184,112)"/>
</svg>
